<svg width="139" height="139" viewBox="0 0 139 139" fill="none" xmlns="http://www.w3.org/2000/svg">
<rect width="139" height="139" rx="24" fill="white"/>
<rect x="14" y="45" width="111" height="50" stroke="#008B8A" stroke-width="4"/>
<path d="M34.6711 87.5509H27.0049L27.9987 82.0776L34.884 82.1244C37.0293 82.1244 38.8354 81.6254 40.3024 80.6274C41.7694 79.6138 42.9209 78.2884 43.7569 76.6511C44.6087 74.9981 45.1844 73.2127 45.4841 71.2947L45.6971 69.634C45.8391 68.4489 45.8864 67.2482 45.8391 66.0319C45.7917 64.8 45.563 63.6617 45.1529 62.6169C44.7585 61.5721 44.1276 60.7223 43.26 60.0674C42.3924 59.4124 41.2173 59.0616 39.7345 59.0148L31.8791 58.9914L32.8492 53.4947L39.9475 53.5181C42.2505 53.5649 44.2538 54.0327 45.9574 54.9215C47.6609 55.7947 49.0569 56.9799 50.1453 58.4768C51.2337 59.9738 51.9909 61.6891 52.4168 63.6227C52.8427 65.5407 52.9295 67.56 52.6771 69.6808L52.4878 71.3415C52.1723 73.6181 51.5177 75.7466 50.5239 77.727C49.5459 79.7074 48.2761 81.4383 46.7145 82.9196C45.1687 84.3854 43.3783 85.5316 41.3435 86.358C39.3086 87.1689 37.0845 87.5665 34.6711 87.5509ZM36.9189 53.4947L30.9327 87.5509H24L29.9626 53.4947H36.9189Z" fill="#3C6AAD"/>
<path d="M84.2171 69.7509L82.064 83.2705C81.0387 84.5024 79.761 85.4692 78.2309 86.1709C76.7166 86.857 75.1155 87.3404 73.4277 87.6211C71.7399 87.9018 70.131 88.0265 68.6009 87.9953C66.2506 87.9641 64.2473 87.4963 62.591 86.5919C60.9505 85.6719 59.6413 84.44 58.6633 82.8962C57.7011 81.3525 57.0543 79.6138 56.7231 77.6802C56.3918 75.731 56.3603 73.7039 56.6284 71.5988L56.936 69.4702C57.2357 67.2872 57.8115 65.2054 58.6633 63.225C59.5151 61.2291 60.6271 59.4592 61.9995 57.9155C63.3718 56.3561 65.0123 55.1398 66.921 54.2666C68.8296 53.3778 70.9985 52.9567 73.4277 53.0035C75.8569 53.0503 77.9233 53.5181 79.6269 54.4069C81.3305 55.2958 82.6555 56.5744 83.6019 58.2429C84.5641 59.8958 85.1241 61.9074 85.2819 64.2776L78.6095 64.2542C78.5306 63.1315 78.3019 62.1413 77.9233 61.2837C77.5447 60.426 76.9769 59.7555 76.2197 59.2721C75.4626 58.7887 74.4688 58.5236 73.2384 58.4768C71.7241 58.4145 70.4228 58.7107 69.3344 59.3657C68.246 60.0206 67.3311 60.9016 66.5897 62.0088C65.8641 63.1003 65.2884 64.301 64.8625 65.6109C64.4366 66.9051 64.1369 68.176 63.9633 69.4235L63.6557 71.6221C63.5138 72.7605 63.4428 73.9612 63.4428 75.2242C63.4586 76.4717 63.64 77.649 63.987 78.7562C64.3498 79.8477 64.9492 80.7443 65.7852 81.4461C66.6213 82.1322 67.7885 82.4908 69.2871 82.522C70.0127 82.5376 70.7225 82.4908 71.4165 82.3817C72.1106 82.2725 72.781 82.0932 73.4277 81.8437C74.0745 81.5786 74.6817 81.2355 75.2496 80.8145L76.4327 74.7564H70.1388L71.0143 69.7509H84.2171Z" fill="#3C6AAD"/>
<path d="M105.133 59.6697L91.2681 87.5509H83.6492L102.057 53.4947H106.932L105.133 59.6697ZM107.878 87.5509L103.666 58.9446L103.927 53.4947H108.493L115 87.5509H107.878ZM109.629 74.8734L108.659 80.3701H90.9368L91.9069 74.8734H109.629Z" fill="#3C6AAD"/>
</svg>
